REM MD5 7da16df521c973ee9467b7716d54c2e1
FILE "Official U.S. PlayStation Magazine Demo Disc 50 (USA).bin" BINARY
  TRACK 01 MODE2/2352
    INDEX 01 00:00:00
  TRACK 02 AUDIO
    INDEX 00 42:55:67
    INDEX 01 42:57:67
  TRACK 03 AUDIO
    INDEX 00 46:39:30
    INDEX 01 46:41:30
  TRACK 04 AUDIO
    INDEX 00 48:55:31
    INDEX 01 48:57:31
REM LEADOUT 49:03:27
